<svg width="24" height="25" viewBox="0 0 24 25" fill="none" xmlns="http://www.w3.org/2000/svg">
<path fill-rule="evenodd" clip-rule="evenodd" d="M11.1649 3.15538C11.1649 3.15537 11.1649 3.15538 11.1649 3.15538L1.41901 20.0727C1.04442 20.7229 1.5149 21.5286 2.25413 21.5286H21.746C22.4852 21.5286 22.9557 20.7229 22.5811 20.0727L12.8352 3.15538C12.4635 2.51016 11.5366 2.51016 11.1649 3.15538ZM10.0509 2.51355C10.9172 1.00981 13.0829 1.00981 13.9492 2.51355L23.6951 19.4308C24.5618 20.9352 23.4779 22.8143 21.746 22.8143H2.25413C0.522206 22.8143 -0.561694 20.9352 0.304948 19.4308L10.0509 2.51355Z" fill="#94621F"/>
<path fill-rule="evenodd" clip-rule="evenodd" d="M11.871 7.81445C12.2317 7.81445 12.5924 8.11501 12.5924 8.4757V15.3285C12.5924 15.6891 12.2918 15.9897 11.871 15.9897C11.5103 15.9897 11.1497 15.6891 11.1497 15.3285V8.4757C11.1497 8.11501 11.4502 7.81445 11.871 7.81445Z" fill="#94621F"/>
<path fill-rule="evenodd" clip-rule="evenodd" d="M11.8708 18.514C12.2915 18.514 12.5921 18.1533 12.5921 17.7926C12.5921 17.3718 12.2315 17.0713 11.8708 17.0713C11.45 17.0713 11.1494 17.432 11.1494 17.7926C11.0893 18.1533 11.45 18.514 11.8708 18.514Z" fill="#94621F"/>
</svg>
