<svg width="20" height="20" viewBox="0 0 20 20" fill="none" xmlns="http://www.w3.org/2000/svg">
<path d="M0.666651 19.2857C1.05555 19.2857 1.33335 19.0099 1.33335 18.6236C1.33335 14.1541 5.2778 13.2161 8.55555 13.2161H9V16.8027C9 17.0786 9.16665 17.2993 9.3889 17.4097C9.6111 17.5201 9.8889 17.4648 10.1111 17.3545L19.7778 9.62947C19.8889 9.4639 20 9.24321 20 9.07769C20 8.85695 19.8889 8.69143 19.7778 8.58108L10.1111 0.524948C9.8889 0.359413 9.6111 0.304235 9.3889 0.414592C9.16665 0.524948 9 0.745666 9 1.02156V5.49103H8.55555C3.2778 5.49103 0 8.19482 0 12.554V18.6236C0 19.0099 0.277802 19.2857 0.666651 19.2857ZM18.2778 9.02247L10.3334 15.368V12.554C10.3334 12.1677 10.0555 11.8918 9.66665 11.8918H8.55555C5.2222 11.8918 2.7222 12.8298 1.33335 14.5404V12.554C1.33335 7.36712 6.3889 6.81534 8.55555 6.81534H9.66665C10.0555 6.81534 10.3334 6.53942 10.3334 6.15321V2.45621L18.2778 9.02247Z" fill="white"/>
</svg>
