<svg width="80" height="80" viewBox="0 0 80 80" fill="none" xmlns="http://www.w3.org/2000/svg">
<g clip-path="url(#clip0_277_47649)">
<path d="M40 5.33333C59.1124 5.33333 74.6667 20.8876 74.6667 40C74.6667 59.1124 59.1124 74.6667 40 74.6667C20.8876 74.6667 5.33333 59.1124 5.33333 40C5.33333 20.8876 20.8876 5.33333 40 5.33333V5.33333ZM40 0C18 0 0 18 0 40C0 62 18 80 40 80C62 80 80 62 80 40C80 18 62 0 40 0Z" fill="#2CCC6E"/>
<path d="M36.6666 56.2209C36 56.2209 35.3333 56 34.8876 55.3333L21.3333 41.779C20.2209 40.6667 20.2209 39.1124 21.3333 38C22.4457 36.8876 24 36.8876 25.1124 38L36.2247 49.1124L54.4457 21.779C55.3333 20.4457 56.8914 20.2248 58.2247 21.1124C59.5581 22 59.779 23.5581 58.8914 24.8914L38.8914 55.1124C38.4457 55.779 37.779 56.2248 36.8914 56.2248C36.8914 56.2248 36.8914 56.2248 36.6705 56.2248L36.6666 56.2209Z" fill="#2CCC6E"/>
</g>
<defs>
<clipPath id="clip0_277_47649">
<rect width="80" height="80" fill="white"/>
</clipPath>
</defs>
</svg>
