<svg width="24" height="24" viewBox="0 0 24 24" fill="none" xmlns="http://www.w3.org/2000/svg">
<path d="M13.0646 11.9922L19.7652 5.29814C20.0783 4.98534 20.0783 4.54741 19.7652 4.2346C19.4521 3.9218 19.0137 3.9218 18.7006 4.2346L12 10.9286L5.29941 4.2346C4.9863 3.9218 4.54795 3.9218 4.23483 4.2346C3.92172 4.54741 3.92172 4.98534 4.23483 5.29814L10.9354 11.9922L4.23483 18.6862C3.92172 18.999 3.92172 19.437 4.23483 19.7498C4.36008 19.8749 4.54795 20 4.73581 20C4.92368 20 5.11155 19.9374 5.23679 19.7498L12 13.0557L18.7006 19.7498C18.8258 19.8749 19.0137 20 19.2016 20C19.3894 20 19.5773 19.9374 19.7026 19.7498C20.0157 19.437 20.0157 18.999 19.7026 18.6862L13.0646 11.9922Z" fill="#404040"/>
</svg>
