<svg width="28" height="28" viewBox="0 0 28 28" fill="none" xmlns="http://www.w3.org/2000/svg">
<path d="M21.3711 4.00002H10.258C9.44052 4.00002 8.77783 4.6627 8.77783 5.48014V7.70032H6.55764C5.73681 7.70032 5.07141 8.36574 5.07141 9.18653V22.5198C5.07141 22.5198 5.07141 22.5198 5.07141 22.5199C5.07141 23.3373 5.73409 24 6.55153 24C6.55368 24 6.55583 24 6.55798 23.9999H17.6708C18.4882 23.9999 19.1509 23.3373 19.1509 22.5198V20.2996H21.3711C22.1919 20.2996 22.8573 19.6343 22.8573 18.8134V5.48014C22.8573 5.48014 22.8573 5.48014 22.8573 5.48012C22.8573 4.66268 22.1946 4 21.3772 4C21.375 4 21.3729 4 21.3707 4.00002H21.3711ZM17.6708 18.8134V21.9082C17.6708 22.246 17.3969 22.5198 17.0592 22.5198H7.16926C6.83149 22.5198 6.55764 22.246 6.55764 21.9082V9.79815C6.55764 9.46041 6.83149 9.18653 7.16926 9.18653H17.0592C17.3969 9.18653 17.6708 9.46041 17.6708 9.79815V18.8134ZM21.3711 18.2018C21.3711 18.5396 21.0972 18.8134 20.7594 18.8134H19.1509V9.18653C19.1509 8.36782 18.4889 7.70379 17.6711 7.70032H10.258V6.09176C10.258 5.75399 10.5318 5.48014 10.8696 5.48014H20.7594C21.0972 5.48014 21.3711 5.75399 21.3711 6.09176V18.2018Z" fill="#0046C0"/>
</svg>
