<svg width="112" height="112" viewBox="0 0 112 112" fill="none" xmlns="http://www.w3.org/2000/svg">
<rect width="112" height="112" rx="56" fill="#F7F7F7"/>
<g clip-path="url(#clip0_275_34475)">
<path d="M80.8384 78.5778C80.8384 81.4222 78.8162 83.7333 76.3273 83.7333H36.8162C34.3273 83.7333 32.3051 81.4222 32.3051 78.5778V47.8222H44.4384C47.2384 47.8222 49.4162 45.3333 49.4162 42.1333V28.2667H76.3273C78.8162 28.2667 80.8384 30.5778 80.8384 33.4222V78.5778ZM45.6829 29.6889V42.1333C45.6829 42.8445 45.0607 43.5555 44.4384 43.5555H33.5496L45.6829 29.6889ZM76.3273 24H45.3718L28.5718 43.2V78.5778C28.5718 83.7333 32.3051 88 36.8162 88H76.3273C80.8384 88 84.5718 83.7333 84.5718 78.5778V33.4222C84.5718 28.2667 80.8384 24 76.3273 24Z" fill="#808080"/>
<path d="M41.9492 67.1999H71.1936C72.2826 67.1999 73.0603 66.311 73.0603 65.0665C73.0603 63.8222 72.2826 62.9332 71.1936 62.9332H41.9492C40.8603 62.9332 40.0825 63.8222 40.0825 65.0665C40.0825 66.311 40.8603 67.1999 41.9492 67.1999Z" fill="#808080"/>
<path d="M41.9492 58.6667H71.1936C72.2826 58.6667 73.0603 57.7778 73.0603 56.5333C73.0603 55.289 72.2826 54.4 71.1936 54.4H41.9492C40.8603 54.4 40.0825 55.289 40.0825 56.5333C40.0825 57.7778 40.8603 58.6667 41.9492 58.6667Z" fill="#808080"/>
<path d="M41.9492 75.7334H71.1936C72.2826 75.7334 73.0603 74.8444 73.0603 73.6C73.0603 72.3555 72.2826 71.4667 71.1936 71.4667H41.9492C40.8603 71.4667 40.0825 72.3555 40.0825 73.6C40.0825 74.8444 40.8603 75.7334 41.9492 75.7334Z" fill="#808080"/>
</g>
<defs>
<clipPath id="clip0_275_34475">
<rect width="56" height="64" fill="white" transform="translate(28.5718 24)"/>
</clipPath>
</defs>
</svg>
