<svg width="20" height="21" viewBox="0 0 20 21" fill="none" xmlns="http://www.w3.org/2000/svg">
<path d="M6.33329 10.4682C6.05549 10.246 5.61104 10.246 5.38884 10.5238C5.16659 10.8016 5.16659 11.246 5.44439 11.4682L9.22214 14.8571C9.33329 14.9682 9.49994 15.0238 9.66659 15.0238C9.83329 15.0238 9.99994 14.9682 10.111 14.8571L13.8888 11.4682C14.1666 11.246 14.1666 10.8016 13.9444 10.5238C13.7221 10.246 13.2777 10.246 12.9999 10.4682L10.3333 12.8571V1.02378C10.3333 0.634897 10.0555 0.357117 9.66659 0.357117C9.27774 0.357117 8.99994 0.634897 8.99994 1.02378V12.8571L6.33329 10.4682Z" fill="#0046C0"/>
<path d="M19.3333 5.80139H12.5555C12.1666 5.80139 11.8889 6.07914 11.8889 6.46804C11.8889 6.85694 12.1666 7.13474 12.5555 7.13474H18.6667V18.0236H1.33334V7.13474H6.7778C7.16665 7.13474 7.44445 6.85694 7.44445 6.46804C7.44445 6.07914 7.16665 5.80139 6.7778 5.80139H0.666665C0.277778 5.80139 0 6.13474 0 6.46804V18.6903C0 19.0791 0.277778 19.3569 0.666665 19.3569H19.3333C19.7222 19.3569 20 19.0791 20 18.6903V6.46804C20 6.13474 19.7222 5.80139 19.3333 5.80139Z" fill="#0046C0"/>
</svg>
