<svg width="20" height="21" viewBox="0 0 20 21" fill="none" xmlns="http://www.w3.org/2000/svg">
<path d="M10 20.1001C4.45545 20.1001 0 15.6173 0 10.1494C0 4.68138 4.45545 0.100098 10 0.100098C15.5446 0.100098 20 4.58286 20 10.0508C20 15.5188 15.5446 20.1001 10 20.1001ZM10 1.08532C5 1.08532 0.990097 5.12473 0.990097 10.1001C0.990097 15.0755 5.04951 19.0656 10 19.0656C15 19.0656 19.0099 15.0262 19.0099 10.1001C19.0099 5.12473 15 1.08532 10 1.08532Z" fill="#0046C0"/>
<path d="M6.48511 7.68613C6.48511 7.24278 6.63362 6.79943 6.93065 6.30682C7.22768 5.86347 7.62372 5.46938 8.21778 5.17381C8.76234 4.82899 9.4059 4.73047 10.1485 4.73047C10.792 4.73047 11.4356 4.82899 11.9802 5.12455C12.5247 5.42012 12.9208 5.71569 13.1683 6.15904C13.4653 6.60239 13.6138 7.04573 13.6138 7.58761C13.6138 7.9817 13.5643 8.37578 13.4158 8.62209C13.2673 8.91766 13.0693 9.16396 12.8217 9.41027C12.5247 9.60731 12.2277 10.0014 11.6336 10.494C11.4851 10.6418 11.3366 10.7896 11.2376 10.8881C11.1386 10.9866 11.0891 11.0851 11.0396 11.2329C10.9901 11.3314 10.9406 11.3807 10.9406 11.5285C10.9406 11.6763 10.891 11.8241 10.8415 12.0211C10.7425 12.5137 10.4455 12.7108 9.99996 12.7108C9.80194 12.7108 9.55441 12.6615 9.4059 12.5137C9.25738 12.3659 9.10887 12.1196 9.10887 11.8241C9.10887 11.43 9.15838 11.1344 9.25738 10.7896C9.35639 10.494 9.55441 10.2477 9.75243 10.0014C9.95045 9.80436 10.2475 9.50879 10.594 9.21322C10.9406 8.91766 11.0891 8.76987 11.2376 8.62209C11.3366 8.52357 11.5346 8.32652 11.5841 8.17874C11.6831 8.03096 11.7326 7.83391 11.7326 7.63687C11.7326 7.24278 11.5841 6.94721 11.2871 6.70091C10.9901 6.40534 10.6435 6.30682 10.198 6.30682C9.70293 6.30682 9.30689 6.40534 9.05936 6.70091C8.86134 6.99647 8.61382 7.3413 8.46531 7.83391C8.31679 8.37578 8.01976 8.67135 7.52471 8.67135C7.22768 8.67135 7.02966 8.57283 6.88115 8.37578C6.53461 8.12948 6.48511 7.93243 6.48511 7.68613ZM9.90095 15.4694C9.60392 15.4694 9.35639 15.3709 9.10887 15.1738C8.91085 15.026 8.76234 14.7305 8.76234 14.3856C8.76234 14.0901 8.86134 13.8438 9.10887 13.5975C9.30689 13.4004 9.55441 13.2526 9.90095 13.2526C10.198 13.2526 10.4455 13.3512 10.693 13.5975C10.891 13.7945 11.0396 14.0408 11.0396 14.3856C11.0396 14.7305 10.9406 14.9768 10.693 15.1738C10.4455 15.3709 10.198 15.4694 9.90095 15.4694Z" fill="#0046C0"/>
</svg>
