<svg width="20" height="20" viewBox="0 0 20 20" fill="none" xmlns="http://www.w3.org/2000/svg">
<path d="M4.02805 16.0517C3.80467 15.7677 3.86051 15.37 4.13974 15.086C4.41897 14.8588 4.86574 14.8588 5.08914 15.1428C6.54114 16.847 8.66326 17.8127 10.8971 17.8127C15.1414 17.8127 18.6597 14.2907 18.6597 9.91676C18.6597 5.59953 15.1972 2.02082 10.8971 2.02082C7.09961 2.07762 3.91636 4.86108 3.24621 8.55341L4.47482 7.70136C4.8099 7.47415 5.20084 7.58773 5.4242 7.87178C5.48005 7.98536 5.5359 8.09899 5.5359 8.26941C5.5359 8.49662 5.4242 8.72383 5.25664 8.83745L2.7436 10.5416C2.57606 10.6552 2.40852 10.6552 2.24098 10.6552C2.07344 10.5984 1.90591 10.5416 1.79421 10.3712L0.118834 7.87178C-0.10455 7.53094 0.00714217 7.13331 0.286372 6.90605C0.621447 6.67884 1.01237 6.79247 1.23575 7.07647L1.96175 8.15578C2.79944 3.89539 6.48528 0.714294 10.8971 0.714294C15.9233 0.714294 20 4.86108 20 9.97355C20 15.086 15.9233 19.2328 10.8971 19.2328C8.27235 19.2328 5.75926 18.0399 4.02805 16.0517Z" fill="#0046C0"/>
<path fill-rule="evenodd" clip-rule="evenodd" d="M10.6658 6.26984C10.2396 6.26984 9.89417 6.61532 9.89417 7.04144V10.1279C9.89417 10.1456 9.89476 10.1632 9.89595 10.1807C9.82252 10.5039 9.96237 10.852 10.2626 11.0274L13.9363 13.1734C14.3043 13.3883 14.7738 13.2625 14.985 12.8924C15.1962 12.5223 15.0691 12.048 14.7012 11.833L11.4374 9.92648V7.04144C11.4374 6.61532 11.0919 6.26984 10.6658 6.26984Z" fill="#0046C0"/>
</svg>
