<svg width="20" height="21" viewBox="0 0 20 21" fill="none" xmlns="http://www.w3.org/2000/svg">
<path d="M10.8333 13.7112V7.71118H8.61108V9.32233H9.16663V13.7112H8.61108V15.3223H11.3888V13.7112H10.8333Z" fill="#0046C0"/>
<path d="M10.0001 6.48894C10.7364 6.48894 11.3334 5.89199 11.3334 5.1556C11.3334 4.41922 10.7364 3.82227 10.0001 3.82227C9.2637 3.82227 8.66675 4.41922 8.66675 5.1556C8.66675 5.89199 9.2637 6.48894 10.0001 6.48894Z" fill="#0046C0"/>
<path d="M10 0.100098C4.5 0.100098 0 4.6001 0 10.1001C0 15.6001 4.5 20.1001 10 20.1001C15.5 20.1001 20 15.6001 20 10.1001C20 4.6001 15.5 0.100098 10 0.100098ZM10 18.7668C5.2222 18.7668 1.33334 14.8779 1.33334 10.1001C1.33334 5.3223 5.2222 1.43343 10 1.43343C14.7778 1.43343 18.6667 5.3223 18.6667 10.1001C18.6667 14.8779 14.7778 18.7668 10 18.7668Z" fill="#0046C0"/>
</svg>
