<svg width="16" height="16" viewBox="0 0 16 16" fill="none" xmlns="http://www.w3.org/2000/svg">
<path d="M8.66643 10.8889V6.08887H6.88867V7.37779H7.33311V10.8889H6.88867V12.1778H9.11087V10.8889H8.66643Z" fill="black"/>
<path d="M8.00027 5.11113C8.58935 5.11113 9.06691 4.63357 9.06691 4.04445C9.06691 3.45535 8.58935 2.97778 8.00027 2.97778C7.41115 2.97778 6.93359 3.45535 6.93359 4.04445C6.93359 4.63357 7.41115 5.11113 8.00027 5.11113Z" fill="black"/>
<path d="M8 0C3.6 0 0 3.6 0 8C0 12.4 3.6 16 8 16C12.4 16 16 12.4 16 8C16 3.6 12.4 0 8 0ZM8 14.9333C4.17776 14.9333 1.06667 11.8222 1.06667 8C1.06667 4.17776 4.17776 1.06667 8 1.06667C11.8222 1.06667 14.9333 4.17776 14.9333 8C14.9333 11.8222 11.8222 14.9333 8 14.9333Z" fill="black"/>
</svg>
