<svg width="112" height="113" viewBox="0 0 112 113" fill="none" xmlns="http://www.w3.org/2000/svg">
<rect y="0.100006" width="112" height="112" rx="56" fill="#F7F7F7"/>
<path d="M70.6127 67.5682L71.3526 66.8283C75.052 62.2041 76.9017 56.47 76.9017 50.5509C76.9017 43.522 74.1272 36.863 69.1329 31.8688C64.1387 26.8746 57.6647 24.1 50.4509 24.1C35.8382 24.1 24 36.1231 24 50.5509C24 57.5798 26.7746 64.2387 31.7688 69.233C36.763 74.2272 43.422 77.0017 50.4509 77.0017C56.3699 77.0017 62.104 74.9671 66.9133 71.2676L67.6532 70.7127L68.3931 71.4526L84.8555 87.915L88 84.7705L71.3526 68.1231L70.6127 67.5682ZM50.4509 72.7474C44.5318 72.7474 38.9827 70.5278 34.9133 66.2734C30.8439 62.0191 28.4393 56.47 28.4393 50.5509C28.4393 44.6318 30.659 39.0827 34.9133 35.0133C39.1676 30.9439 44.5318 28.5393 50.4509 28.5393C56.3699 28.5393 61.9191 30.759 65.9884 35.0133C70.0578 39.2676 72.4624 44.6318 72.4624 50.5509C72.4624 62.759 62.659 72.7474 50.4509 72.7474Z" fill="#808080"/>
</svg>
