<svg width="20" height="20" viewBox="0 0 20 20" fill="none" xmlns="http://www.w3.org/2000/svg">
<path d="M18.1632 2.22534H1.83674C0.816325 2.22534 0 3.02281 0 4.01964V15.9816C0 16.9785 0.816325 17.7759 1.83674 17.7759H18.1632C19.1837 17.7759 20 16.9785 20 15.9816V4.01964C20 3.02281 19.1837 2.22534 18.1632 2.22534ZM18.3673 4.04798C18.3673 4.09233 18.344 4.13352 18.3055 4.15686L10.0789 9.15521C10.0306 9.18462 9.96945 9.18462 9.9211 9.15521L1.69443 4.15686C1.65602 4.13352 1.63266 4.09233 1.63266 4.04798C1.63266 3.97727 1.69102 3.91996 1.76301 3.91996H18.237C18.309 3.91996 18.3673 3.97727 18.3673 4.04798ZM17.9592 16.181H2.04082C1.83674 16.181 1.63266 15.9816 1.63266 15.7823V5.51489L9.92 10.6489C9.96885 10.6792 10.0311 10.6792 10.08 10.6489L18.3673 5.51489V15.7823C18.3673 16.0813 18.2653 16.181 17.9592 16.181Z" fill="#0046C0"/>
</svg>
