<svg width="20" height="20" viewBox="0 0 20 20" fill="none" xmlns="http://www.w3.org/2000/svg">
<g clip-path="url(#clip0_971_16667)">
<path fill-rule="evenodd" clip-rule="evenodd" d="M12.2344 4.18498C11.9219 3.88117 11.9219 3.38879 12.2344 3.08497C12.5468 2.78125 13.0533 2.78125 13.3657 3.08497L19.7657 9.30717C20.0781 9.61097 20.0781 10.1034 19.7657 10.4072L13.3657 16.6294C13.0533 16.9331 12.5468 16.9331 12.2344 16.6294C11.9219 16.3256 11.9219 15.8332 12.2344 15.5294L17.2687 10.635L0.800001 10.6349C0.358179 10.6349 -3.755e-08 10.2867 0 9.85717C3.755e-08 9.42767 0.358179 9.07937 0.800001 9.07937L17.2687 9.07942L12.2344 4.18498Z" fill="white"/>
</g>
<defs>
<clipPath id="clip0_971_16667">
<rect width="20" height="14" fill="white" transform="translate(0 2.85718)"/>
</clipPath>
</defs>
</svg>
