<svg width="20" height="20" viewBox="0 0 20 20" fill="none" xmlns="http://www.w3.org/2000/svg">
<path d="M10 0C4.5 0 0 4.5 0 10C0 15.5 4.5 20 10 20C15.5 20 20 15.5 20 10C20 4.5 15.5 0 10 0ZM10 18.6667C5.2222 18.6667 1.33334 14.7778 1.33334 10C1.33334 5.2222 5.2222 1.33334 10 1.33334C14.7778 1.33334 18.6667 5.2222 18.6667 10C18.6667 14.7778 14.7778 18.6667 10 18.6667Z" fill="white"/>
<path d="M13.9445 9.5H10.6112V6.16665C10.6112 5.7778 10.3334 5.5 9.94451 5.5C9.55561 5.5 9.27786 5.7778 9.27786 6.16665V9.5H5.94451C5.55561 9.5 5.27786 9.7778 5.27786 10.1667C5.27786 10.5556 5.55561 10.8334 5.94451 10.8334H9.27786V14.1667C9.27786 14.5556 9.55561 14.8334 9.94451 14.8334C10.3334 14.8334 10.6112 14.5556 10.6112 14.1667V10.8334H13.9445C14.3334 10.8334 14.6112 10.5556 14.6112 10.1667C14.6112 9.7778 14.2779 9.5 13.9445 9.5Z" fill="white"/>
</svg>
