<svg width="20" height="20" viewBox="0 0 20 20" fill="none" xmlns="http://www.w3.org/2000/svg">
<path d="M14.5665 13.5838L14.7977 13.3526C15.9538 11.9075 16.5318 10.1156 16.5318 8.2659C16.5318 6.06937 15.6647 3.98844 14.104 2.42775C12.5434 0.867052 10.5202 0 8.2659 0C3.69942 0 0 3.75723 0 8.2659C0 10.4624 0.867052 12.5434 2.42775 14.104C3.98844 15.6647 6.06936 16.5318 8.2659 16.5318C10.1156 16.5318 11.9075 15.896 13.4104 14.7399L13.6416 14.5665L13.8728 14.7977L19.0173 19.9422L20 18.9595L14.7977 13.7572L14.5665 13.5838ZM8.2659 15.2023C6.41619 15.2023 4.68208 14.5087 3.4104 13.1792C2.13873 11.8497 1.38728 10.1156 1.38728 8.2659C1.38728 6.41619 2.08092 4.68208 3.4104 3.41041C4.73988 2.13873 6.41619 1.38728 8.2659 1.38728C10.1156 1.38728 11.8497 2.08093 13.1214 3.41041C14.3931 4.73989 15.1445 6.41619 15.1445 8.2659C15.1445 12.0809 12.0809 15.2023 8.2659 15.2023Z" fill="white"/>
</svg>
