<svg width="20" height="20" viewBox="0 0 20 20" fill="none" xmlns="http://www.w3.org/2000/svg">
<path d="M19.9746 18.8383L14.7391 13.7166C14.6822 13.6597 14.6822 13.5458 14.7391 13.4889C15.422 12.5215 15.8203 11.4402 15.8203 10.2452C15.8203 7.17216 13.2594 4.66821 10.0726 4.66821C6.94269 4.66821 4.38184 7.17216 4.38184 10.2452C4.38184 13.3182 6.94269 15.8222 10.0726 15.8222C11.3246 15.8222 12.5197 15.4238 13.4871 14.684C13.544 14.6271 13.6578 14.6271 13.7147 14.684L18.9502 19.7488L19.9746 18.8383C20.0315 18.8383 19.9746 18.8952 19.9746 18.8383C20.0315 18.8383 19.9746 18.8383 19.9746 18.8383ZM10.0726 14.4564C7.68247 14.4564 5.74764 12.5784 5.74764 10.2452C5.74764 7.91194 7.68247 6.03401 10.0726 6.03401C12.4628 6.03401 14.3976 7.91194 14.3976 10.2452C14.3976 12.5784 12.4628 14.4564 10.0726 14.4564Z" fill="#0046C0"/>
<path d="M1.42269 16.9036V1.99379C1.42269 1.87997 1.53651 1.82307 1.59342 1.82307H16.9586C17.0724 1.82307 17.1293 1.93688 17.1293 1.99379V9.22109C17.1293 9.33489 17.2431 9.4487 17.3569 9.4487H18.3243C18.4381 9.4487 18.552 9.33489 18.552 9.22109V0.68491C18.552 0.571095 18.4381 0.457275 18.3243 0.457275H0.227631C0.113816 0.457275 0 0.571095 0 0.68491V18.2126C0 18.3264 0.113816 18.4402 0.227631 18.4402H9.90198C10.0158 18.4402 10.1296 18.3264 10.1296 18.2126V17.302C10.1296 17.1882 10.0158 17.0744 9.90198 17.0744H1.59342C1.53651 17.0744 1.42269 16.9605 1.42269 16.9036Z" fill="#0046C0"/>
</svg>
