<svg width="24" height="24" viewBox="0 0 24 24" fill="none" xmlns="http://www.w3.org/2000/svg">
<path d="M18.629 7.57629L18.271 6.51733C18.1347 6.11401 17.7536 5.84302 17.323 5.84302H14.3144V4.87634C14.3144 4.39319 13.9164 4 13.4269 4H10.6719C10.1825 4 9.78438 4.39319 9.78438 4.87634V5.84302H6.77597C6.34515 5.84302 5.96406 6.11401 5.82775 6.51733L5.46979 7.57629C5.38828 7.81738 5.42959 8.08435 5.58013 8.29053C5.73066 8.4967 5.9742 8.61987 6.23173 8.61987H6.60589L7.42943 18.67C7.49065 19.4158 8.13187 20 8.88947 20H15.3764C16.1339 20 16.7753 19.4158 16.8364 18.6699L17.6599 8.61987H17.8671C18.1246 8.61987 18.3681 8.4967 18.5187 8.29065C18.6692 8.08447 18.7105 7.81738 18.629 7.57629ZM10.7343 4.9375H13.3645V5.84302H10.7343V4.9375ZM15.8895 18.5944C15.868 18.8569 15.6426 19.0625 15.3764 19.0625H8.88947C8.62329 19.0625 8.39793 18.8569 8.3764 18.5944L7.55893 8.61987H16.7069L15.8895 18.5944ZM6.43545 7.68237L6.72897 6.81396C6.73565 6.79395 6.75457 6.78052 6.77597 6.78052H17.323C17.3444 6.78052 17.3632 6.79395 17.37 6.81396L17.6635 7.68237H6.43545Z" fill="#FF5A40"/>
<path d="M14.3751 18.5615C14.3835 18.562 14.3918 18.5621 14.4002 18.5621C14.6512 18.5621 14.8609 18.368 14.874 18.1177L15.3201 9.66779C15.3337 9.40925 15.1323 9.18866 14.8705 9.17524C14.6079 9.16144 14.3851 9.36042 14.3714 9.61896L13.9255 18.0689C13.9118 18.3275 14.1131 18.548 14.3751 18.5615Z" fill="#FF5A40"/>
<path d="M9.24609 18.1188C9.25994 18.3686 9.46947 18.562 9.71995 18.562C9.7286 18.562 9.73751 18.5618 9.74629 18.5613C10.0081 18.5472 10.2089 18.3263 10.1947 18.0677L9.72749 9.61778C9.71327 9.35923 9.48939 9.16111 9.22741 9.17527C8.96556 9.18931 8.76481 9.41026 8.77903 9.66881L9.24609 18.1188Z" fill="#FF5A40"/>
<path d="M12.055 18.562C12.3174 18.562 12.53 18.3522 12.53 18.0933V9.64331C12.53 9.3844 12.3174 9.17456 12.055 9.17456C11.7927 9.17456 11.5801 9.3844 11.5801 9.64331V18.0933C11.5801 18.3522 11.7927 18.562 12.055 18.562Z" fill="#FF5A40"/>
</svg>
