<svg width="20" height="20" viewBox="0 0 20 20" fill="none" xmlns="http://www.w3.org/2000/svg">
<path d="M13 9.46827C13.1111 9.57937 13.2777 9.63497 13.4444 9.63497C13.6111 9.63497 13.8333 9.57937 13.9444 9.41272C14.1666 9.13497 14.1666 8.69052 13.8888 8.46827L10.1111 5.07937C9.83325 4.85717 9.49995 4.85717 9.22215 5.07937L5.44435 8.46827C5.1666 8.69052 5.1666 9.13497 5.3888 9.41272C5.61105 9.69052 6.0555 9.69052 6.33325 9.46827L8.99995 7.07937V18.6905C8.99995 19.0794 9.2777 19.3572 9.6666 19.3572C10.0555 19.3572 10.3333 19.0794 10.3333 18.6905V7.07937L13 9.46827Z" fill="#0046C0"/>
<path d="M19.3333 0.357178H0.666665C0.277778 0.357178 0 0.634958 0 1.02384V13.2461C0 13.635 0.277778 13.9127 0.666665 13.9127H6.7778C7.16665 13.9127 7.44445 13.635 7.44445 13.2461C7.44445 12.8572 7.16665 12.5794 6.7778 12.5794H1.33334V1.69051H18.6667V12.5794H12.5555C12.1666 12.5794 11.8889 12.8572 11.8889 13.2461C11.8889 13.635 12.1666 13.9127 12.5555 13.9127H19.3333C19.7222 13.9127 20 13.635 20 13.2461V1.02384C20 0.634958 19.7222 0.357178 19.3333 0.357178Z" fill="#0046C0"/>
</svg>
